<?xml version="1.0" encoding="UTF-8" standalone="no"?>
<!-- Created with Inkscape (http://www.inkscape.org/) -->

<svg
   xmlns:dc="http://purl.org/dc/elements/1.1/"
   xmlns:cc="http://creativecommons.org/ns#"
   xmlns:rdf="http://www.w3.org/1999/02/22-rdf-syntax-ns#"
   xmlns:svg="http://www.w3.org/2000/svg"
   xmlns="http://www.w3.org/2000/svg"
   xmlns:sodipodi="http://sodipodi.sourceforge.net/DTD/sodipodi-0.dtd"
   xmlns:inkscape="http://www.inkscape.org/namespaces/inkscape"
   width="25mm"
   height="25mm"
   viewBox="0 0 24.999999 25"
   version="1.1"
   id="svg924"
   inkscape:version="0.92.3 (2405546, 2018-03-11)"
   sodipodi:docname="brand.svg">
  <defs
     id="defs918" />
  <sodipodi:namedview
     id="base"
     pagecolor="#ffffff"
     bordercolor="#666666"
     borderopacity="1.0"
     inkscape:pageopacity="0.0"
     inkscape:pageshadow="2"
     inkscape:zoom="3.959798"
     inkscape:cx="59.967619"
     inkscape:cy="36.097856"
     inkscape:document-units="mm"
     inkscape:current-layer="layer1"
     showgrid="false"
     inkscape:window-width="1366"
     inkscape:window-height="705"
     inkscape:window-x="-8"
     inkscape:window-y="-8"
     inkscape:window-maximized="1"
     units="mm"
     width="25in" />
  <metadata
     id="metadata921">
    <rdf:RDF>
      <cc:Work
         rdf:about="">
        <dc:format>image/svg+xml</dc:format>
        <dc:type
           rdf:resource="http://purl.org/dc/dcmitype/StillImage" />
        <dc:title></dc:title>
      </cc:Work>
    </rdf:RDF>
  </metadata>
  <g
     inkscape:label="Layer 1"
     inkscape:groupmode="layer"
     id="layer1"
     transform="translate(0,-271.99998)">
    <circle
       style="opacity:1;fill:#ffffff;fill-opacity:1;stroke:#323232;stroke-width:0.91047043;stroke-linecap:butt;stroke-linejoin:round;stroke-miterlimit:4;stroke-dasharray:none;stroke-dashoffset:0;stroke-opacity:1;paint-order:normal"
       id="path4413-2-2"
       cx="12.500002"
       cy="284.49997"
       inkscape:export-xdpi="96"
       inkscape:export-ydpi="96"
       r="12.044766" />
    <circle
       style="opacity:1;fill:#ffffff;fill-opacity:1;stroke:#323232;stroke-width:0.88743579;stroke-linecap:butt;stroke-linejoin:round;stroke-miterlimit:4;stroke-dasharray:none;stroke-dashoffset:0;stroke-opacity:1;paint-order:normal"
       id="path4413-9"
       cx="12.509194"
       cy="284.55423"
       inkscape:export-xdpi="96"
       inkscape:export-ydpi="96"
       r="10.421233" />
    <path
       style="fill:#000000;fill-opacity:1;stroke:none;stroke-width:0.0308582px;stroke-linecap:butt;stroke-linejoin:miter;stroke-opacity:1"
       d="m 3.9452312,282.23165 c -0.05369,-0.002 -0.2684441,0.003 -0.2684441,0.23463 v 0.18702 c 0,0 0.03112,0.32726 0.06231,1.10655 0.03119,0.7793 0.01556,3.49119 0.01556,3.49119 0,0 -0.01556,0.23384 0.06231,0.26503 0.07794,0.0313 0.5766573,-0.29618 0.7636822,-0.45205 0.1870311,-0.15583 0.3117498,-0.32728 0.2961619,-0.46755 -0.01556,-0.14021 -0.2961309,-0.82604 -0.311712,-0.88838 -0.01556,-0.0623 -0.03112,-0.17146 0.04675,-0.21818 0.07794,-0.0469 0.3272819,0.15584 0.841607,0.18702 0.514331,0.0312 1.37155,0.0936 1.7923679,-0.7793 0.4208122,-0.87281 -0.09353,-1.66764 -0.311718,-1.88585 -0.2182,-0.21819 -0.7481319,-0.62341 -1.683275,-0.70135 -0.9351441,-0.078 -1.2936378,-0.078 -1.2936378,-0.078 0,0 -0.0044,-4.8e-4 -0.012002,-5.8e-4 z m 0.7757941,1.51265 c 0.2337879,0 0.639019,0.14021 0.9351489,0.32728 0.296132,0.18703 0.2960819,0.4208 0.2804951,0.57664 -0.01556,0.15584 -0.202588,0.37408 -0.3740322,0.43643 -0.1714439,0.0623 -0.4363818,0.0159 -0.6857558,-0.0159 -0.249369,-0.0312 -0.3740441,-0.29613 -0.4208002,-0.4364 -0.04675,-0.14021 -0.03125,-0.6079 -0.03125,-0.6079 0,0 -0.01556,-0.0936 0.01556,-0.15583 0.03119,-0.0623 0.04675,-0.12459 0.2805559,-0.12459 z"
       id="path8188-8"
       inkscape:connector-curvature="0"
       inkscape:export-xdpi="96"
       inkscape:export-ydpi="96" />
    <path
       style="fill:#000000;fill-opacity:1;stroke:none;stroke-width:0.0308582px;stroke-linecap:butt;stroke-linejoin:miter;stroke-opacity:1"
       d="m 8.1859943,282.94529 c 0,0 -0.1212381,0.42982 -0.1322631,0.49594 -0.011001,0.0662 -0.08953,0.29619 0.197013,0.29619 0.286525,0 1.1351289,0.0106 1.190243,0.0106 0.05515,0 0.2534771,0.044 0.2424602,0.36368 -0.01098,0.31961 -0.04405,2.62295 -0.022029,2.88744 0.022029,0.26451 -0.01098,0.69432 0.3526586,0.46289 0.363689,-0.23145 0.727371,-0.51799 0.782473,-0.58412 0.05515,-0.0662 0.121236,-0.23143 -0.04404,-0.55102 -0.165322,-0.3196 -0.385723,-1.2674 -0.429803,-1.77436 -0.04405,-0.50695 -0.132253,-0.80451 0.308573,-0.80451 h 0.606147 c 0.143257,0 0.385728,0.022 0.551044,-0.4188 0.165321,-0.44082 0.27551,-0.76042 0.286533,-0.87063 0.01098,-0.11022 0.132253,-0.28655 -0.407762,-0.25349 -0.540022,0.0331 -1.542919,0.0662 -2.0057857,0.0772 -0.4628711,0.0107 -0.7934939,-0.0107 -0.9367629,0 -0.1432631,0.0107 -0.2865382,0.0107 -0.3747071,0.19836 -0.08817,0.18736 -0.1639689,0.46425 -0.1639689,0.46425 z"
       id="path8193-5"
       inkscape:connector-curvature="0"
       sodipodi:nodetypes="scsscsccssssscssscs"
       inkscape:export-xdpi="96"
       inkscape:export-ydpi="96" />
    <path
       style="fill:#000000;fill-opacity:1;stroke:none;stroke-width:0.0308582px;stroke-linecap:butt;stroke-linejoin:miter;stroke-opacity:1"
       d="m 14.892661,282.11513 c -0.02394,-0.002 -0.04875,0.006 -0.07357,0.0243 -0.09916,0.0772 -0.275511,0.29755 -0.45185,0.37469 -0.176337,0.0772 -0.551073,0.18735 -0.595158,0.2204 -0.04411,0.0331 -0.09916,0.0882 0.04405,0.23145 0.143257,0.14323 -0.02203,0.46286 -0.02203,0.46286 l -0.06088,0.15495 c 0,0 -0.897904,2.22555 -1.063225,2.64435 -0.165328,0.41877 -0.407797,0.95877 -0.418814,1.03589 -0.01098,0.0772 -0.209396,0.49596 0.385728,0.15425 0.595118,-0.34168 0.793526,-0.46287 0.881698,-0.51796 0.0882,-0.0553 0.242441,-0.14323 0.132228,-0.38574 -0.110188,-0.24246 -0.07713,-0.37467 -0.04398,-0.42979 0.03312,-0.0551 0.07711,-0.1654 0.40774,-0.1654 0.330602,0 0.958824,-0.0107 1.102087,0 0.143264,0.0106 0.231447,0.17623 0.330637,0.36367 0.09916,0.18734 0.09914,0.20942 0.176286,0.34168 0.07711,0.13222 0.09919,0.15421 0.562082,0.15421 0.46287,0 0.80449,0.022 0.91471,0.0107 0.11018,-0.0107 0.34164,-0.0551 0.14325,-0.40773 -0.198371,-0.35266 -1.509781,-2.93155 -1.708163,-3.27319 -0.198378,-0.34164 -0.429814,-0.7494 -0.473901,-0.83755 -0.03312,-0.0662 -0.09714,-0.15087 -0.168929,-0.15656 z m -0.681413,1.91398 c 0.02527,-0.002 0.04683,0.024 0.06232,0.0471 0.02749,0.0413 0.3775,0.66949 0.43261,0.77145 0.05515,0.10193 -0.0029,0.11287 -0.05235,0.11571 -0.04957,0.003 -0.385723,0 -0.385723,0 0,0 -0.217687,-0.006 -0.322385,-0.0107 -0.104698,-0.006 -0.115721,-0.0159 -0.09643,-0.10472 0.01923,-0.0883 0.245254,-0.63643 0.297608,-0.74938 0.0229,-0.0495 0.04469,-0.0679 0.06433,-0.0692 z"
       id="path8195-7"
       inkscape:connector-curvature="0"
       inkscape:export-xdpi="96"
       inkscape:export-ydpi="96" />
    <path
       style="fill:#000000;fill-opacity:1;stroke:none;stroke-width:0.0308582px;stroke-linecap:butt;stroke-linejoin:miter;stroke-opacity:1"
       d="m 18.18006,282.21145 c 0,0 -0.0779,-0.007 -0.17143,0 -0.0936,0.007 -0.16364,0.0701 -0.15585,0.27275 0.008,0.20262 0.039,3.4912 0.039,3.74836 0,0.25717 -0.039,0.36626 0.17144,0.36626 0.21041,0 0.73253,0 0.84163,-0.0235 0.1091,-0.0235 0.20261,-0.14021 0.0702,-0.42859 -0.13248,-0.28836 -0.23379,-0.57668 -0.24157,-0.95072 -0.008,-0.37409 0.0312,-0.61566 0.19482,-0.38966 0.16362,0.22598 1.4261,2.19759 1.5274,2.31448 0.10131,0.11697 0.29612,0.32731 0.57666,0.0936 0.28055,-0.23377 0.62344,-0.42861 0.71694,-0.50653 0.0936,-0.078 0.19482,-0.23379 0.007,-0.49875 -0.18701,-0.26495 -1.43388,-2.04173 -1.53518,-2.22097 -0.10132,-0.17923 -0.0623,-0.31173 0.0467,-0.42081 0.10908,-0.10914 0.74811,-0.64681 0.83384,-0.74812 0.0857,-0.10131 0.0623,-0.27275 -0.0467,-0.34289 -0.10908,-0.0701 -0.37405,-0.28053 -0.45977,-0.3195 -0.0857,-0.039 -0.14808,-0.078 -0.31952,0.14803 -0.17143,0.226 -1.32478,1.5352 -1.4183,1.62872 -0.0936,0.0936 -0.29613,0.40521 -0.3273,0.0234 -0.0311,-0.38185 -0.039,-1.37155 -0.0467,-1.5118 -0.008,-0.14022 -0.0232,-0.22156 -0.1247,-0.22601 -0.10546,-0.006 -0.17923,-0.007 -0.17923,-0.007 z"
       id="path8202-6"
       inkscape:connector-curvature="0"
       sodipodi:nodetypes="cscsscssscssscssssscscscc"
       inkscape:export-xdpi="96"
       inkscape:export-ydpi="96" />
    <path
       style="fill:#aa0000;fill-opacity:1;stroke:none;stroke-width:0.0308582px;stroke-linecap:butt;stroke-linejoin:miter;stroke-opacity:1"
       d="m 3.6695552,281.97391 c -0.05369,-0.002 -0.268443,0.003 -0.268443,0.23464 v 0.18701 c 0,0 0.03119,0.32727 0.06231,1.10655 0.03119,0.77929 0.01556,3.49121 0.01556,3.49121 0,0 -0.01556,0.23382 0.06231,0.26499 0.07792,0.0312 0.5766501,-0.29616 0.7636812,-0.45201 0.1870249,-0.15584 0.3117498,-0.32731 0.2961629,-0.46759 -0.01556,-0.14021 -0.2961251,-0.82603 -0.311713,-0.88838 -0.01556,-0.0623 -0.03112,-0.17146 0.04675,-0.21817 0.07794,-0.0466 0.3272809,0.15583 0.841606,0.18702 0.5143381,0.0312 1.3715561,0.0936 1.79237,-0.77929 0.4208119,-0.87281 -0.09351,-1.66766 -0.3117199,-1.88585 -0.2181942,-0.21821 -0.74813,-0.62343 -1.6832752,-0.70137 -0.9351438,-0.0779 -1.293631,-0.0779 -1.293631,-0.0779 0,0 -0.0044,-4.5e-4 -0.011999,-5.8e-4 z m 0.7757941,1.51265 c 0.2337879,0 0.639019,0.14022 0.935151,0.32727 0.2961248,0.18701 0.2960809,0.4208 0.2804988,0.57666 -0.01556,0.15583 -0.2025999,0.37406 -0.3740369,0.43642 -0.1714241,0.0623 -0.4363821,0.0159 -0.68575,-0.0159 -0.2493751,-0.0313 -0.37405,-0.29616 -0.420805,-0.43644 -0.04675,-0.1402 -0.03125,-0.60786 -0.03125,-0.60786 0,0 -0.01556,-0.0936 0.01556,-0.15584 0.03119,-0.0623 0.04675,-0.12459 0.2805552,-0.12459 z"
       id="path8188-2-3"
       inkscape:connector-curvature="0"
       inkscape:export-xdpi="96"
       inkscape:export-ydpi="96" />
    <path
       style="fill:#aa0000;fill-opacity:1;stroke:none;stroke-width:0.0308582px;stroke-linecap:butt;stroke-linejoin:miter;stroke-opacity:1"
       d="m 7.9103123,282.68755 c 0,0 -0.1212372,0.4298 -0.132243,0.49593 -0.010999,0.0662 -0.08954,0.29618 0.196987,0.29618 0.286544,0 1.135144,0.0107 1.190253,0.0107 0.05515,0 0.2534701,0.044 0.2424589,0.36368 -0.01098,0.3196 -0.04405,2.62295 -0.022019,2.88744 0.022019,0.26452 -0.01098,0.69432 0.3526589,0.46287 0.3636779,-0.23142 0.7273649,-0.51798 0.7824739,-0.58409 0.05515,-0.0662 0.121231,-0.23143 -0.04405,-0.55104 -0.165322,-0.31961 -0.385722,-1.26739 -0.429809,-1.77433 -0.04405,-0.50696 -0.1322397,-0.80453 0.308592,-0.80453 h 0.606147 c 0.143263,0 0.385717,0.022 0.551031,-0.4188 0.165328,-0.44083 0.275528,-0.76041 0.28654,-0.87063 0.01098,-0.11022 0.132247,-0.28655 -0.407762,-0.25348 -0.540021,0.0331 -1.5429089,0.0662 -2.0057798,0.0772 -0.46288,0.0107 -0.793505,-0.0107 -0.936779,0 -0.143256,0.0107 -0.2865381,0.0107 -0.374701,0.19837 -0.08817,0.18734 -0.1639491,0.46425 -0.1639491,0.46425 z"
       id="path8193-3-3"
       inkscape:connector-curvature="0"
       sodipodi:nodetypes="scsscsccssssscssscs"
       inkscape:export-xdpi="96"
       inkscape:export-ydpi="96" />
    <path
       style="fill:#aa0000;fill-opacity:1;stroke:none;stroke-width:0.0308582px;stroke-linecap:butt;stroke-linejoin:miter;stroke-opacity:1"
       d="m 14.616989,281.85737 c -0.02395,-0.002 -0.0487,0.006 -0.07348,0.0243 -0.09918,0.0772 -0.275511,0.29756 -0.45185,0.3747 -0.176343,0.0772 -0.55109,0.18737 -0.59517,0.2204 -0.04411,0.0331 -0.09913,0.0883 0.04411,0.23145 0.143263,0.14323 -0.02202,0.46287 -0.02202,0.46287 l -0.06087,0.15495 c 0,0 -0.897916,2.22553 -1.063225,2.64432 -0.165334,0.4188 -0.407792,0.95879 -0.418815,1.03593 -0.01098,0.0772 -0.209408,0.49592 0.385717,0.15423 0.595129,-0.34163 0.79353,-0.46285 0.881691,-0.51796 0.0882,-0.0551 0.242447,-0.14323 0.132236,-0.38572 -0.110207,-0.24246 -0.07711,-0.37468 -0.04399,-0.42978 0.03312,-0.0551 0.07712,-0.16542 0.407728,-0.16542 0.330624,0 0.958824,-0.0107 1.102093,0 0.143264,0.0107 0.231447,0.17625 0.330636,0.36367 0.09918,0.18736 0.09914,0.20943 0.176298,0.34167 0.0772,0.13224 0.09918,0.15425 0.562071,0.15425 0.46287,0 0.80451,0.022 0.914721,0.0106 0.11019,-0.0106 0.34164,-0.0551 0.143249,-0.40772 -0.19837,-0.35268 -1.509782,-2.93156 -1.708155,-3.2732 -0.198384,-0.34165 -0.429825,-0.74941 -0.473906,-0.83756 -0.03312,-0.0662 -0.09715,-0.15087 -0.168942,-0.15654 z m -0.68142,1.914 c 0.02533,-0.002 0.04689,0.024 0.06232,0.0471 0.02754,0.0413 0.377513,0.6695 0.432615,0.77145 0.05515,0.10192 -0.0029,0.11288 -0.05235,0.11573 -0.04957,0.003 -0.385722,0 -0.385722,0 0,0 -0.217694,-0.006 -0.322398,-0.0107 -0.104697,-0.006 -0.115721,-0.0159 -0.09643,-0.10472 0.01923,-0.0883 0.245254,-0.63644 0.297609,-0.74939 0.02289,-0.0495 0.04469,-0.0677 0.06434,-0.0692 z"
       id="path8195-3-4"
       inkscape:connector-curvature="0"
       inkscape:export-xdpi="96"
       inkscape:export-ydpi="96" />
    <path
       style="fill:#aa0000;fill-opacity:1;stroke:none;stroke-width:0.0308582px;stroke-linecap:butt;stroke-linejoin:miter;stroke-opacity:1"
       d="m 17.90439,281.95371 c 0,0 -0.078,-0.007 -0.17145,0 -0.0936,0.007 -0.16362,0.0701 -0.15585,0.27274 0.008,0.20263 0.0389,3.49122 0.0389,3.74837 0,0.25716 -0.0389,0.36627 0.17142,0.36627 0.21041,0 0.73254,0 0.84163,-0.0235 0.10909,-0.0235 0.20261,-0.1402 0.0701,-0.42859 -0.13249,-0.28835 -0.23379,-0.57667 -0.24159,-0.95073 -0.008,-0.37406 0.0312,-0.61564 0.19483,-0.38966 0.16365,0.22601 1.4261,2.1976 1.5274,2.3145 0.10132,0.11695 0.29612,0.3273 0.57667,0.0936 0.28055,-0.23379 0.62343,-0.42861 0.71693,-0.50653 0.0936,-0.0779 0.19483,-0.2338 0.007,-0.49875 -0.187,-0.26496 -1.43386,-2.04173 -1.53517,-2.22097 -0.10131,-0.17924 -0.0623,-0.31171 0.0467,-0.42081 0.10909,-0.10915 0.74812,-0.64682 0.83384,-0.74813 0.0857,-0.10132 0.0623,-0.27273 -0.0468,-0.34288 -0.10908,-0.0701 -0.37406,-0.28054 -0.45978,-0.3195 -0.0857,-0.0391 -0.14808,-0.0779 -0.31949,0.14802 -0.17143,0.226 -1.3248,1.53519 -1.41832,1.62871 -0.0936,0.0936 -0.29611,0.40524 -0.3273,0.0235 -0.0312,-0.38184 -0.0389,-1.37155 -0.0467,-1.51182 -0.008,-0.1402 -0.0232,-0.22155 -0.12469,-0.22599 -0.10544,-0.006 -0.17924,-0.007 -0.17924,-0.007 z"
       id="path8202-0-4"
       inkscape:connector-curvature="0"
       sodipodi:nodetypes="cscsscssscssscssssscscscc"
       inkscape:export-xdpi="96"
       inkscape:export-ydpi="96" />
  </g>
</svg>
